<svg xmlns="http://www.w3.org/2000/svg" width="134" height="134" viewBox="0 0 134 134"><g transform="translate(-1045 -543)"><circle cx="67" cy="67" r="67" transform="translate(1045 543)" fill="#ffd200"/><g transform="translate(1087 581.795)"><path d="M0,0H54.41V54.41H0Z" fill="none"/><path d="M10.019-.75A10.769,10.769,0,1,1-.75,10.019,10.781,10.781,0,0,1,10.019-.75Zm0,18.137a7.368,7.368,0,1,0-7.368-7.368A7.376,7.376,0,0,0,10.019,17.387Z" transform="translate(10.385 5.851)" fill="#fff"/><path d="M31.155,31.253a1.7,1.7,0,0,1-1.7-1.7V25.019a7.376,7.376,0,0,0-7.368-7.368H13.019a7.376,7.376,0,0,0-7.368,7.368v4.534a1.7,1.7,0,0,1-3.4,0V25.019A10.781,10.781,0,0,1,13.019,14.25h9.068A10.781,10.781,0,0,1,32.856,25.019v4.534A1.7,1.7,0,0,1,31.155,31.253Z" transform="translate(2.851 18.056)" fill="#fff"/><path d="M19.95,24.253a1.7,1.7,0,0,1-1.7-1.7V8.95a1.7,1.7,0,0,1,3.4,0v13.6A1.7,1.7,0,0,1,19.95,24.253Z" transform="translate(23.124 9.186)" fill="#fff"/><path d="M19.95,24.253a1.7,1.7,0,0,1-1.7-1.7V8.95a1.7,1.7,0,0,1,3.4,0v13.6A1.7,1.7,0,0,1,19.95,24.253Z" transform="translate(58.826 4.988) rotate(90)" fill="#fff"/></g></g></svg>