<svg xmlns="http://www.w3.org/2000/svg" width="134" height="134" viewBox="0 0 134 134"><g transform="translate(-827 -543)"><circle cx="67" cy="67" r="67" transform="translate(827 543)" fill="#ffd200"/><g transform="translate(863.795 581.795)"><path d="M0,0H54.41V54.41H0Z" fill="none"/><path d="M10.019-.75A10.769,10.769,0,1,1-.75,10.019,10.781,10.781,0,0,1,10.019-.75Zm0,18.137a7.368,7.368,0,1,0-7.368-7.368A7.376,7.376,0,0,0,10.019,17.387Z" transform="translate(17.186 5.851)" fill="#fff"/><path d="M6.95,31.253a1.7,1.7,0,0,1-1.7-1.7V25.019A10.781,10.781,0,0,1,16.019,14.25h2.267a1.7,1.7,0,1,1,0,3.4H16.019a7.376,7.376,0,0,0-7.368,7.368v4.534A1.7,1.7,0,0,1,6.95,31.253Z" transform="translate(6.652 18.056)" fill="#fff"/><path d="M6.618-.75A7.368,7.368,0,1,1-.75,6.618,7.376,7.376,0,0,1,6.618-.75Zm0,11.335A3.967,3.967,0,1,0,2.651,6.618,3.972,3.972,0,0,0,6.618,10.585Z" transform="translate(30.789 33.056)" fill="#fff"/><path d="M25.118,27.818a1.7,1.7,0,0,1-1.2-.5l-5.668-5.668a1.7,1.7,0,0,1,2.4-2.4l5.668,5.668a1.7,1.7,0,0,1-1.2,2.9Z" transform="translate(22.491 23.758)" fill="#fff"/></g></g></svg>