<svg xmlns="http://www.w3.org/2000/svg" width="134" height="134" viewBox="0 0 134 134"><g transform="translate(-416 -515)"><circle cx="67" cy="67" r="67" transform="translate(416 515)" fill="#ffd200"/><g transform="translate(452.368 553.868)"><path d="M0,0H58.264V58.264H0Z" fill="none"/><path d="M22.92-.75A23.67,23.67,0,1,1-.75,22.92,23.7,23.7,0,0,1,22.92-.75Zm0,43.7A20.028,20.028,0,1,0,2.892,22.92,20.051,20.051,0,0,0,22.92,42.948Z" transform="translate(6.212 6.212)" fill="#fff"/><path d="M1.071,2.916A1.821,1.821,0,0,1-.75,1.1V1.071a1.821,1.821,0,1,1,3.642,0V1.1A1.821,1.821,0,0,1,1.071,2.916Z" transform="translate(28.061 40.2)" fill="#fff"/><path d="M15.925,25.712a1.821,1.821,0,0,1-1.816-1.718,5.489,5.489,0,0,1,3.614-5.453,4.491,4.491,0,1,0-5.2-6.9,1.821,1.821,0,1,1-2.9-2.2A8.133,8.133,0,1,1,19,21.95l-.046.017a1.83,1.83,0,0,0-1.214,1.821,1.821,1.821,0,0,1-1.715,1.921Z" transform="translate(13.206 8.883)" fill="#fff"/></g></g></svg>