<svg xmlns="http://www.w3.org/2000/svg" width="134" height="134" viewBox="0 0 134 134"><g transform="translate(-445 -543)"><circle cx="67" cy="67" r="67" transform="translate(445 543)" fill="#ffd200"/><g transform="translate(-1.931 -1.162)"><g transform="translate(478.092 589.795)"><path d="M0,0H48.734V48.734H0Z" transform="translate(25.89)" fill="none"/><path d="M8.9-.75A9.645,9.645,0,1,1-.75,8.9,9.656,9.656,0,0,1,8.9-.75Zm0,16.245A6.6,6.6,0,1,0,2.3,8.9,6.607,6.607,0,0,0,8.9,15.495Z" transform="translate(35.27 5.319)" fill="#fff"/><path d="M8.9-.75A9.645,9.645,0,1,1-.75,8.9,9.656,9.656,0,0,1,8.9-.75Zm0,16.245A6.6,6.6,0,1,0,2.3,8.9,6.607,6.607,0,0,0,8.9,15.495Z" transform="translate(4.811 5.319)" fill="#fff"/><path d="M28.14,29.48a1.523,1.523,0,0,1-1.523-1.523V23.9a6.607,6.607,0,0,0-6.6-6.6H11.9a6.607,6.607,0,0,0-6.6,6.6v4.061a1.523,1.523,0,0,1-3.046,0V23.9A9.656,9.656,0,0,1,11.9,14.25h8.122A9.656,9.656,0,0,1,29.663,23.9v4.061A1.523,1.523,0,0,1,28.14,29.48Z" transform="translate(28.209 14.686)" fill="#fff"/><path d="M28.14,29.48a1.523,1.523,0,0,1-1.523-1.523V23.9a6.607,6.607,0,0,0-6.6-6.6H11.9a6.607,6.607,0,0,0-6.6,6.6v4.061a1.523,1.523,0,0,1-3.046,0V23.9A9.656,9.656,0,0,1,11.9,14.25h8.122A9.656,9.656,0,0,1,29.663,23.9v4.061A1.523,1.523,0,0,1,28.14,29.48Z" transform="translate(-2.25 14.686)" fill="#fff"/></g><g transform="translate(533.683 589.795)"><path d="M0,0H25.374V25.374H0Z" fill="none"/><path d="M12.829,2.3a2.793,2.793,0,0,1,2.756,2.167.809.809,0,0,0,1.208.5,2.812,2.812,0,0,1,3.963,1.052,2.786,2.786,0,0,1-.065,2.846.809.809,0,0,0,.5,1.207,2.836,2.836,0,0,1,0,5.511.809.809,0,0,0-.5,1.208,2.785,2.785,0,0,1,.065,2.846,2.812,2.812,0,0,1-3.963,1.053.809.809,0,0,0-1.207.5,2.836,2.836,0,0,1-5.511,0,.809.809,0,0,0-1.208-.5A2.812,2.812,0,0,1,4.9,19.638a2.786,2.786,0,0,1,.065-2.846.809.809,0,0,0-.5-1.207,2.836,2.836,0,0,1,0-5.511.809.809,0,0,0,.5-1.208A2.785,2.785,0,0,1,4.9,6.019,2.812,2.812,0,0,1,8.866,4.966a.8.8,0,0,0,.42.12.81.81,0,0,0,.788-.62A2.793,2.793,0,0,1,12.829,2.3Zm3.542,4.813a2.836,2.836,0,0,1-2.756-2.168.809.809,0,0,0-1.572,0A2.833,2.833,0,0,1,7.812,6.7a.819.819,0,0,0-.427-.13.847.847,0,0,0-.715.444.752.752,0,0,0,.029.8,2.836,2.836,0,0,1-1.754,4.233.809.809,0,0,0,0,1.572A2.836,2.836,0,0,1,6.7,17.846a.752.752,0,0,0-.029.8.847.847,0,0,0,.715.444.818.818,0,0,0,.427-.13,2.836,2.836,0,0,1,4.233,1.754.809.809,0,0,0,1.572,0,2.836,2.836,0,0,1,4.231-1.753.819.819,0,0,0,.427.13.847.847,0,0,0,.715-.444.752.752,0,0,0-.029-.8,2.836,2.836,0,0,1,1.754-4.233.809.809,0,0,0,0-1.572A2.836,2.836,0,0,1,18.96,7.811a.752.752,0,0,0,.029-.8.847.847,0,0,0-.715-.444.818.818,0,0,0-.427.13A2.835,2.835,0,0,1,16.371,7.113Z" transform="translate(-0.142 -0.142)" fill="#fff"/><path d="M3.909-.7A4.609,4.609,0,1,1-.7,3.909,4.615,4.615,0,0,1,3.909-.7Zm0,7.192A2.582,2.582,0,1,0,1.327,3.909,2.585,2.585,0,0,0,3.909,6.492Z" transform="translate(8.761 8.979)" fill="#fff"/></g></g></g></svg>