<svg xmlns="http://www.w3.org/2000/svg" width="134" height="134" viewBox="0 0 134 134"><g transform="translate(-880 -983)"><circle cx="67" cy="67" r="67" transform="translate(880 983)" fill="#ffd200"/><g transform="translate(919.306 1023.806)"><path d="M0,0H54.388V54.388H0Z" fill="none"/><path d="M26.28,16.98H17.216a3.97,3.97,0,0,1-3.966-3.966V3.95a1.7,1.7,0,1,1,3.4,0v9.065a.567.567,0,0,0,.567.567H26.28a1.7,1.7,0,1,1,0,3.4Z" transform="translate(16.777 2.849)" fill="#fff"/><path d="M33.144,46.44H10.482A6.239,6.239,0,0,1,4.25,40.208V8.482A6.239,6.239,0,0,1,10.482,2.25H26.345a1.7,1.7,0,0,1,1.2.5L38.878,14.079a1.7,1.7,0,0,1,.5,1.2V40.208A6.239,6.239,0,0,1,33.144,46.44ZM10.482,5.649A2.836,2.836,0,0,0,7.649,8.482V40.208a2.836,2.836,0,0,0,2.833,2.833H33.144a2.836,2.836,0,0,0,2.833-2.833V15.984L25.641,5.649Z" transform="translate(5.381 2.849)" fill="#fff"/><path d="M.95,16.246a1.7,1.7,0,0,1-1.7-1.7V.95a1.7,1.7,0,1,1,3.4,0v13.6A1.7,1.7,0,0,1,.95,16.246Z" transform="translate(26.244 23.978)" fill="#fff"/><path d="M23.547,20.448a1.694,1.694,0,0,1-1.2-.5l-5.6-5.6-5.6,5.6a1.7,1.7,0,0,1-2.4-2.4l6.8-6.8a1.7,1.7,0,0,1,2.4,0l6.8,6.8a1.7,1.7,0,0,1-1.2,2.9Z" transform="translate(10.446 12.978)" fill="#fff"/></g></g></svg>