<svg xmlns="http://www.w3.org/2000/svg" width="134" height="134" viewBox="0 0 134 134"><g transform="translate(-445 -500)"><circle cx="67" cy="67" r="67" transform="translate(445 500)" fill="#ffd200"/><g transform="translate(0 -4)"><g transform="translate(474 540)"><path d="M0,0H62V62H0Z" fill="none"/><path d="M47.688,3.125H1.187a1.938,1.938,0,0,1,0-3.875h46.5a1.937,1.937,0,1,1,0,3.875Z" transform="translate(6.563 53.063)" fill="#fff"/><path d="M3.771,3.125H1.187a1.938,1.938,0,0,1,0-3.875H3.771a1.938,1.938,0,0,1,0,3.875Z" transform="translate(22.063 19.479)" fill="#fff"/><path d="M3.771,3.125H1.187a1.938,1.938,0,0,1,0-3.875H3.771a1.938,1.938,0,0,1,0,3.875Z" transform="translate(22.063 29.813)" fill="#fff"/><path d="M3.771,3.125H1.187a1.938,1.938,0,0,1,0-3.875H3.771a1.938,1.938,0,0,1,0,3.875Z" transform="translate(22.063 40.146)" fill="#fff"/><path d="M3.771,3.125H1.187a1.938,1.938,0,0,1,0-3.875H3.771a1.938,1.938,0,0,1,0,3.875Z" transform="translate(34.979 19.479)" fill="#fff"/><path d="M3.771,3.125H1.187a1.938,1.938,0,0,1,0-3.875H3.771a1.938,1.938,0,0,1,0,3.875Z" transform="translate(34.979 29.813)" fill="#fff"/><path d="M3.771,3.125H1.187a1.938,1.938,0,0,1,0-3.875H3.771a1.938,1.938,0,0,1,0,3.875Z" transform="translate(34.979 40.146)" fill="#fff"/><path d="M42.354,52.625a1.938,1.938,0,0,1-1.937-1.937V9.354a3.233,3.233,0,0,0-3.229-3.229H11.354A3.233,3.233,0,0,0,8.125,9.354V50.687a1.937,1.937,0,1,1-3.875,0V9.354a7.112,7.112,0,0,1,7.1-7.1H37.188a7.112,7.112,0,0,1,7.1,7.1V50.687A1.938,1.938,0,0,1,42.354,52.625Z" transform="translate(6.729 3.563)" fill="#fff"/></g><g transform="translate(526.531 566.531)"><path d="M0,0H26.938V26.938H0Z" fill="none"/><path d="M13.1,1.75A3.137,3.137,0,0,1,16.2,4.184a.685.685,0,0,0,1.022.424,3.159,3.159,0,0,1,4.45,1.18,3.13,3.13,0,0,1-.072,3.2.685.685,0,0,0,.423,1.022,3.185,3.185,0,0,1,0,6.189.685.685,0,0,0-.424,1.022,3.129,3.129,0,0,1,.072,3.2,3.159,3.159,0,0,1-4.45,1.181.685.685,0,0,0-1.022.423,3.185,3.185,0,0,1-6.189,0A.685.685,0,0,0,8.984,21.6a3.159,3.159,0,0,1-4.45-1.18,3.13,3.13,0,0,1,.072-3.2A.685.685,0,0,0,4.183,16.2a3.185,3.185,0,0,1,0-6.189.685.685,0,0,0,.424-1.022,3.129,3.129,0,0,1-.072-3.2,3.159,3.159,0,0,1,4.45-1.181.677.677,0,0,0,.355.1.686.686,0,0,0,.667-.525A3.137,3.137,0,0,1,13.1,1.75Zm3.761,5.458a3.185,3.185,0,0,1-3.1-2.435.685.685,0,0,0-1.33,0A3.182,3.182,0,0,1,7.685,6.742a.69.69,0,0,0-.363-.113.733.733,0,0,0-.607.383.627.627,0,0,0,.027.672,3.185,3.185,0,0,1-1.97,4.753.685.685,0,0,0,0,1.33,3.185,3.185,0,0,1,1.968,4.752.628.628,0,0,0-.027.672.733.733,0,0,0,.607.383.7.7,0,0,0,.362-.113,3.185,3.185,0,0,1,4.753,1.97.685.685,0,0,0,1.33,0,3.185,3.185,0,0,1,4.752-1.968.689.689,0,0,0,.362.113.733.733,0,0,0,.607-.383.627.627,0,0,0-.027-.672,3.185,3.185,0,0,1,1.97-4.753.685.685,0,0,0,0-1.33,3.185,3.185,0,0,1-1.968-4.752.628.628,0,0,0,.027-.673.732.732,0,0,0-.607-.382.7.7,0,0,0-.362.113A3.184,3.184,0,0,1,16.862,7.208Z" transform="translate(0.367 0.367)" fill="#fff"/><path d="M3-1.25A4.25,4.25,0,1,1-1.25,3,4.255,4.255,0,0,1,3-1.25Zm0,6A1.75,1.75,0,1,0,1.25,3,1.752,1.752,0,0,0,3,4.75Z" transform="translate(10.469 10.469)" fill="#fff"/></g></g></g></svg>