<svg xmlns="http://www.w3.org/2000/svg" width="134" height="134" viewBox="0 0 134 134"><g transform="translate(-416 -515)"><circle cx="67" cy="67" r="67" transform="translate(416 515)" fill="#ffd200"/><g transform="translate(453.128 555.128)"><path d="M0,0H53.745V53.745H0Z" fill="none"/><path d="M39.863,46.3a6.388,6.388,0,0,1-4.547-1.883L22.685,31.781a15.118,15.118,0,0,1-16.1-3.428,15.14,15.14,0,0,1-2.952-17.2,1.68,1.68,0,0,1,2.7-.464l7.346,7.346H18.03V13.689L10.684,6.343a1.68,1.68,0,0,1,.464-2.7,15.114,15.114,0,0,1,17.2,2.952,15.145,15.145,0,0,1,3.427,16.1L44.41,35.319A6.43,6.43,0,0,1,39.863,46.3Zm-16.8-18.187a1.679,1.679,0,0,1,1.188.492L37.692,42.037a3.071,3.071,0,0,0,4.343-4.343L28.6,24.258a1.68,1.68,0,0,1-.328-1.911,11.763,11.763,0,0,0-13.338-16.5L20.9,11.806a1.68,1.68,0,0,1,.492,1.188v6.718a1.68,1.68,0,0,1-1.68,1.68H12.991A1.68,1.68,0,0,1,11.8,20.9L5.842,14.938A11.756,11.756,0,0,0,17.281,29.421a11.659,11.659,0,0,0,5.063-1.148A1.677,1.677,0,0,1,23.068,28.109Z" transform="translate(2.685 2.682)" fill="#fff"/></g></g></svg>