<svg xmlns="http://www.w3.org/2000/svg" width="134" height="134" viewBox="0 0 134 134"><g transform="translate(-662 -983)"><circle cx="67" cy="67" r="67" transform="translate(662 983)" fill="#ffd200"/><g transform="translate(699.5 1023.806)"><path d="M0,0H58V58H0Z" fill="none"/><path d="M22.813-.75A23.563,23.563,0,1,1-.75,22.813,23.589,23.589,0,0,1,22.813-.75Zm0,43.5A19.938,19.938,0,1,0,2.875,22.813,19.96,19.96,0,0,0,22.813,42.75Z" transform="translate(6.188 6.188)" fill="#fff"/><path d="M8.313-.75A9.063,9.063,0,1,1-.75,8.313,9.073,9.073,0,0,1,8.313-.75Zm0,14.5A5.438,5.438,0,1,0,2.875,8.313,5.444,5.444,0,0,0,8.313,13.75Z" transform="translate(20.688 15.854)" fill="#fff"/><path d="M35.423,25.775a1.813,1.813,0,0,1-1.736-1.294,7.9,7.9,0,0,0-7.525-5.606h-9.67a7.8,7.8,0,0,0-7.525,5.594,1.813,1.813,0,1,1-3.472-1.043A11.479,11.479,0,0,1,16.489,15.25h9.67a11.479,11.479,0,0,1,11,8.193,1.814,1.814,0,0,1-1.737,2.332Z" transform="translate(7.675 21.604)" fill="#fff"/></g><g transform="translate(747.032 1021.806)"><path d="M0,0H24.164V24.164H0Z" fill="none"/><path d="M12.326,2.3a2.66,2.66,0,0,1,2.624,2.064.771.771,0,0,0,1.15.477,2.678,2.678,0,0,1,3.774,1,2.653,2.653,0,0,1-.061,2.711A.771.771,0,0,0,20.29,9.7a2.7,2.7,0,0,1,0,5.249.771.771,0,0,0-.477,1.15,2.653,2.653,0,0,1,.062,2.711,2.678,2.678,0,0,1-3.774,1,.771.771,0,0,0-1.15.476,2.7,2.7,0,0,1-5.249,0,.771.771,0,0,0-1.15-.477,2.678,2.678,0,0,1-3.774-1,2.653,2.653,0,0,1,.062-2.71.771.771,0,0,0-.476-1.15,2.7,2.7,0,0,1,0-5.249.771.771,0,0,0,.477-1.15,2.652,2.652,0,0,1-.062-2.71,2.678,2.678,0,0,1,3.774-1,.761.761,0,0,0,.4.114.772.772,0,0,0,.75-.59A2.66,2.66,0,0,1,12.326,2.3ZM15.7,6.883a2.7,2.7,0,0,1-2.625-2.065.77.77,0,0,0-1.5,0A2.7,2.7,0,0,1,7.549,6.488a.78.78,0,0,0-.407-.124.807.807,0,0,0-.681.423.716.716,0,0,0,.027.761,2.7,2.7,0,0,1-1.67,4.031.77.77,0,0,0,0,1.5A2.7,2.7,0,0,1,6.488,17.1a.716.716,0,0,0-.027.761.806.806,0,0,0,.681.423.779.779,0,0,0,.406-.124,2.7,2.7,0,0,1,4.031,1.67.77.77,0,0,0,1.5,0,2.7,2.7,0,0,1,4.03-1.669.78.78,0,0,0,.406.124.806.806,0,0,0,.681-.423.716.716,0,0,0-.027-.761,2.7,2.7,0,0,1,1.67-4.031.77.77,0,0,0,0-1.5,2.7,2.7,0,0,1-1.669-4.03.716.716,0,0,0,.027-.761.806.806,0,0,0-.681-.423.779.779,0,0,0-.406.124A2.7,2.7,0,0,1,15.7,6.883Z" transform="translate(-0.245 -0.245)" fill="#fff"/><path d="M3.69-.7A4.39,4.39,0,1,1-.7,3.69,4.394,4.394,0,0,1,3.69-.7Zm0,6.849A2.459,2.459,0,1,0,1.23,3.69,2.462,2.462,0,0,0,3.69,6.149Z" transform="translate(8.376 8.584)" fill="#fff"/></g></g></svg>