<svg xmlns="http://www.w3.org/2000/svg" width="134" height="134" viewBox="0 0 134 134"><g transform="translate(-880 -1463)"><circle cx="67" cy="67" r="67" transform="translate(880 1463)" fill="#ffd200"/><g transform="translate(-4.855 899.986)"><g transform="translate(909.224 604.448)"><path d="M0,0H51.847V51.847H0Z" fill="none"/><path d="M7.351-.75H33.275a8.11,8.11,0,0,1,8.1,8.1V24.634a8.11,8.11,0,0,1-8.1,8.1H7.351a8.11,8.11,0,0,1-8.1-8.1V7.351A8.11,8.11,0,0,1,7.351-.75ZM33.275,29.494a4.866,4.866,0,0,0,4.861-4.861V7.351A4.866,4.866,0,0,0,33.275,2.49H7.351A4.866,4.866,0,0,0,2.49,7.351V24.634a4.866,4.866,0,0,0,4.861,4.861Z" transform="translate(5.611 9.931)" fill="#fff"/><path d="M39.756,2.49H.87a1.62,1.62,0,0,1,0-3.24H39.756a1.62,1.62,0,1,1,0,3.24Z" transform="translate(5.611 20.733)" fill="#fff"/><path d="M.892,2.49H.87a1.62,1.62,0,0,1,0-3.24H.892a1.62,1.62,0,1,1,0,3.24Z" transform="translate(14.252 31.534)" fill="#fff"/><path d="M5.191,2.49H.87a1.62,1.62,0,0,1,0-3.24H5.191a1.62,1.62,0,0,1,0,3.24Z" transform="translate(22.893 31.534)" fill="#fff"/></g><g transform="translate(954.467 613.064)"><path d="M0,0H39.018V39.018H0Z" fill="none"/><path d="M.469,17.946A1.219,1.219,0,0,1-.75,16.727V.469a1.219,1.219,0,0,1,2.439,0V16.727A1.219,1.219,0,0,1,.469,17.946Z" transform="translate(19.04 6.034)" fill="#fff"/><path d="M6.972,8.192a1.216,1.216,0,0,1-.862-.357l-6.5-6.5A1.219,1.219,0,0,1,1.332-.393l6.5,6.5a1.219,1.219,0,0,1-.862,2.082Z" transform="translate(19.04 6.034)" fill="#fff"/><path d="M.469,8.192A1.219,1.219,0,0,1-.393,6.11l6.5-6.5A1.219,1.219,0,1,1,7.835,1.332l-6.5,6.5A1.216,1.216,0,0,1,.469,8.192Z" transform="translate(12.537 6.034)" fill="#fff"/><path d="M26.481,1.689H.469a1.219,1.219,0,0,1,0-2.439H26.481a1.219,1.219,0,0,1,0,2.439Z" transform="translate(6.034 32.046)" fill="#fff"/></g></g></g></svg>