<svg xmlns="http://www.w3.org/2000/svg" width="134" height="134" viewBox="0 0 134 134"><g transform="translate(-880 -500)"><circle cx="67" cy="67" r="67" transform="translate(880 500)" fill="#ffd200"/><g transform="translate(-8.192 -6)"><g transform="translate(939.923 540)"><path d="M0,0H29.538V29.538H0Z" fill="none"/><path d="M5.212-1.25A6.462,6.462,0,1,1-1.25,5.212,6.469,6.469,0,0,1,5.212-1.25Zm0,9.846A3.385,3.385,0,1,0,1.827,5.212,3.388,3.388,0,0,0,5.212,8.6Z" transform="translate(9.558 3.404)" fill="#fff"/><path d="M21.058,24.212a1.538,1.538,0,0,1-1.538-1.538V20.212a3.388,3.388,0,0,0-3.385-3.385H11.212a3.388,3.388,0,0,0-3.385,3.385v2.462a1.538,1.538,0,0,1-3.077,0V20.212a6.469,6.469,0,0,1,6.462-6.462h4.923A6.469,6.469,0,0,1,22.6,20.212v2.462A1.538,1.538,0,0,1,21.058,24.212Z" transform="translate(1.096 3.173)" fill="#fff"/></g><g transform="translate(939.923 574.462)"><path d="M0,0H29.538V29.538H0Z" fill="none"/><path d="M5.212-1.25A6.462,6.462,0,1,1-1.25,5.212,6.469,6.469,0,0,1,5.212-1.25Zm0,9.846A3.385,3.385,0,1,0,1.827,5.212,3.388,3.388,0,0,0,5.212,8.6Z" transform="translate(9.558 3.404)" fill="#fff"/><path d="M21.058,24.212a1.538,1.538,0,0,1-1.538-1.538V20.212a3.388,3.388,0,0,0-3.385-3.385H11.212a3.388,3.388,0,0,0-3.385,3.385v2.462a1.538,1.538,0,0,1-3.077,0V20.212a6.469,6.469,0,0,1,6.462-6.462h4.923A6.469,6.469,0,0,1,22.6,20.212v2.462A1.538,1.538,0,0,1,21.058,24.212Z" transform="translate(1.096 3.173)" fill="#fff"/></g><g transform="translate(919 559.692)"><path d="M0,0H29.538V29.538H0Z" fill="none"/><path d="M5.212-1.25A6.462,6.462,0,1,1-1.25,5.212,6.469,6.469,0,0,1,5.212-1.25Zm0,9.846A3.385,3.385,0,1,0,1.827,5.212,3.388,3.388,0,0,0,5.212,8.6Z" transform="translate(9.558 3.404)" fill="#fff"/><path d="M21.058,24.212a1.538,1.538,0,0,1-1.538-1.538V20.212a3.388,3.388,0,0,0-3.385-3.385H11.212a3.388,3.388,0,0,0-3.385,3.385v2.462a1.538,1.538,0,0,1-3.077,0V20.212a6.469,6.469,0,0,1,6.462-6.462h4.923A6.469,6.469,0,0,1,22.6,20.212v2.462A1.538,1.538,0,0,1,21.058,24.212Z" transform="translate(1.096 3.173)" fill="#fff"/></g><g transform="translate(960.846 559.692)"><path d="M0,0H29.538V29.538H0Z" fill="none"/><path d="M5.212-1.25A6.462,6.462,0,1,1-1.25,5.212,6.469,6.469,0,0,1,5.212-1.25Zm0,9.846A3.385,3.385,0,1,0,1.827,5.212,3.388,3.388,0,0,0,5.212,8.6Z" transform="translate(9.558 3.404)" fill="#fff"/><path d="M21.058,24.212a1.538,1.538,0,0,1-1.538-1.538V20.212a3.388,3.388,0,0,0-3.385-3.385H11.212a3.388,3.388,0,0,0-3.385,3.385v2.462a1.538,1.538,0,0,1-3.077,0V20.212a6.469,6.469,0,0,1,6.462-6.462h4.923A6.469,6.469,0,0,1,22.6,20.212v2.462A1.538,1.538,0,0,1,21.058,24.212Z" transform="translate(1.096 3.173)" fill="#fff"/></g></g></g></svg>