<svg xmlns="http://www.w3.org/2000/svg" width="134" height="134" viewBox="0 0 134 134"><g transform="translate(-662 -1463)"><circle cx="67" cy="67" r="67" transform="translate(662 1463)" fill="#ffd200"/><g transform="translate(219.097 2)"><g transform="translate(478.806 1504.806)"><path d="M0,0H56.388V56.388H0Z" fill="none"/><path d="M37.905,44.366H12.061A8.821,8.821,0,0,1,3.25,35.556V7.362A4.116,4.116,0,0,1,7.362,3.25H30.857a4.116,4.116,0,0,1,4.112,4.112v.587h5.286a4.116,4.116,0,0,1,4.112,4.112V37.905A6.468,6.468,0,0,1,37.905,44.366Zm0-3.524a2.94,2.94,0,0,0,2.937-2.937V12.061a.588.588,0,0,0-.587-.587H34.968V37.905A2.94,2.94,0,0,0,37.905,40.842ZM7.362,6.774a.588.588,0,0,0-.587.587V35.556a5.292,5.292,0,0,0,5.286,5.286h20.09a6.422,6.422,0,0,1-.707-2.937V7.362a.588.588,0,0,0-.587-.587Z" transform="translate(4.386 4.386)" fill="#fff"/><path d="M10.41,2.774h-9.4a1.762,1.762,0,0,1,0-3.524h9.4a1.762,1.762,0,0,1,0,3.524Z" transform="translate(17.784 17.784)" fill="#fff"/><path d="M10.41,2.774h-9.4a1.762,1.762,0,0,1,0-3.524h9.4a1.762,1.762,0,0,1,0,3.524Z" transform="translate(17.784 27.182)" fill="#fff"/><path d="M10.41,2.774h-9.4a1.762,1.762,0,0,1,0-3.524h9.4a1.762,1.762,0,0,1,0,3.524Z" transform="translate(17.784 36.58)" fill="#fff"/></g></g><g transform="translate(722.87 1481.87)"><path d="M0,0H38.26V38.26H0Z" fill="none"/><path d="M6.5-1.25A7.75,7.75,0,1,1-1.25,6.5,7.759,7.759,0,0,1,6.5-1.25Zm0,13A5.25,5.25,0,1,0,1.25,6.5,5.256,5.256,0,0,0,6.5,11.75Z" transform="translate(16.13 18.13)" fill="#fff"/><path d="M22.485,23.735a1.246,1.246,0,0,1-.884-.366l-3.985-3.985a1.25,1.25,0,0,1,1.768-1.768L23.369,21.6a1.25,1.25,0,0,1-.884,2.134Z" transform="translate(9.992 11.992)" fill="#fff"/></g></g></svg>