<svg xmlns="http://www.w3.org/2000/svg" width="134" height="134" viewBox="0 0 134 134"><g transform="translate(-416 -515)"><circle cx="67" cy="67" r="67" transform="translate(416 515)" fill="#ffd200"/><g transform="translate(448 549.759)"><path d="M0,0H64.482V64.482H0Z" fill="none"/><path d="M25.945,51.268H10.639A7.4,7.4,0,0,1,3.25,43.88V11.639A7.389,7.389,0,0,1,10.639,4.25h5.373a2.015,2.015,0,1,1,0,4.03H10.639A3.358,3.358,0,0,0,7.28,11.639V43.88a3.362,3.362,0,0,0,3.358,3.358H25.945a2.015,2.015,0,0,1,0,4.03Z" transform="translate(5.482 7.169)" fill="#fff"/><path d="M30.012,28.027H19.265a2.015,2.015,0,0,1-2.015-2.015V15.265a2.015,2.015,0,1,1,4.03,0V24h8.732a2.015,2.015,0,0,1,0,4.03Z" transform="translate(29.096 22.349)" fill="#fff"/><path d="M26.012,24.4A2.015,2.015,0,0,1,24,22.386V11.639A3.362,3.362,0,0,0,20.639,8.28H15.265a2.015,2.015,0,1,1,0-4.03h5.373a7.4,7.4,0,0,1,7.389,7.389V22.386A2.015,2.015,0,0,1,26.012,24.4Z" transform="translate(22.349 7.169)" fill="#fff"/><path d="M6.639-.75h5.373a7.389,7.389,0,0,1,0,14.777H6.639a7.389,7.389,0,0,1,0-14.777ZM12.012,10a3.358,3.358,0,0,0,0-6.717H6.639a3.358,3.358,0,0,0,0,6.717Z" transform="translate(20.229 6.795)" fill="#fff"/><path d="M12.012-.75A12.762,12.762,0,1,1-.75,12.012,12.776,12.776,0,0,1,12.012-.75Zm0,21.494A8.732,8.732,0,1,0,3.28,12.012,8.742,8.742,0,0,0,12.012,20.744Z" transform="translate(36.349 36.349)" fill="#fff"/><path d="M20.012,14.28H9.265a2.015,2.015,0,0,1,0-4.03H20.012a2.015,2.015,0,1,1,0,4.03Z" transform="translate(12.229 17.289)" fill="#fff"/><path d="M17.325,18.28H9.265a2.015,2.015,0,0,1,0-4.03h8.06a2.015,2.015,0,1,1,0,4.03Z" transform="translate(12.229 24.036)" fill="#fff"/></g></g></svg>