<svg xmlns="http://www.w3.org/2000/svg" width="134" height="134" viewBox="0 0 134 134"><g transform="translate(-1226 -500)"><circle cx="67" cy="67" r="67" transform="translate(1226 500)" fill="#ffd200"/><g transform="translate(1260.689 536.189)"><path d="M0,0H63.622V63.622H0Z" fill="none"/><path d="M40.7,50.641H6.238A1.988,1.988,0,0,1,4.25,48.653V6.238A1.988,1.988,0,0,1,6.238,4.25H24.617a1.988,1.988,0,0,1,0,3.976H8.226V46.665H38.712V27.446a1.988,1.988,0,0,1,3.976,0V48.653A1.988,1.988,0,0,1,40.7,50.641Z" transform="translate(7.016 7.016)" fill="#fff"/><path d="M23.493,20.226H10.238a1.988,1.988,0,0,1,0-3.976H23.493a1.988,1.988,0,0,1,0,3.976Z" transform="translate(13.62 26.827)" fill="#fff"/><path d="M23.493,22.83H10.238A1.988,1.988,0,0,1,8.25,20.842v-10.6A1.988,1.988,0,0,1,10.238,8.25H23.493a1.988,1.988,0,0,1,1.988,1.988v10.6A1.988,1.988,0,0,1,23.493,22.83ZM12.226,18.854H21.5V12.226H12.226Z" transform="translate(13.62 13.62)" fill="#fff"/><path d="M16.238,11.528A1.988,1.988,0,0,1,14.25,9.54v-5.3a1.988,1.988,0,0,1,3.976,0v5.3A1.988,1.988,0,0,1,16.238,11.528Z" transform="translate(23.526 3.715)" fill="#fff"/><path d="M19.238,12.528a1.988,1.988,0,0,1-1.406-3.394l5.3-5.3a1.988,1.988,0,0,1,2.812,2.812l-5.3,5.3A1.982,1.982,0,0,1,19.238,12.528Z" transform="translate(28.478 5.365)" fill="#fff"/><path d="M25.54,12.226h-5.3a1.988,1.988,0,1,1,0-3.976h5.3a1.988,1.988,0,0,1,0,3.976Z" transform="translate(30.129 13.62)" fill="#fff"/></g></g></svg>