<svg xmlns="http://www.w3.org/2000/svg" width="134" height="134" viewBox="0 0 134 134"><g transform="translate(-416 -515)"><circle cx="67" cy="67" r="67" transform="translate(416 515)" fill="#ffd200"/><g transform="translate(462.358 555.878)"><path d="M0,0H52.244V52.244H0Z" transform="translate(1.039)" fill="none"/><path d="M9.59-.75A10.34,10.34,0,1,1-.75,9.59,10.352,10.352,0,0,1,9.59-.75Zm0,17.415A7.075,7.075,0,1,0,2.515,9.59,7.083,7.083,0,0,0,9.59,16.665Z" transform="translate(11.041 5.648)" fill="#fff"/><path d="M30,30.576a1.633,1.633,0,0,1-1.633-1.633V24.59A7.083,7.083,0,0,0,21.3,17.515H12.59A7.083,7.083,0,0,0,5.515,24.59v4.354a1.633,1.633,0,1,1-3.265,0V24.59A10.352,10.352,0,0,1,12.59,14.25H21.3a10.352,10.352,0,0,1,10.34,10.34v4.354A1.633,1.633,0,0,1,30,30.576Z" transform="translate(3.687 16.77)" fill="#fff"/><path d="M16.882,22.516a1.633,1.633,0,0,1-.4-3.215,7.075,7.075,0,0,0,0-13.707,1.633,1.633,0,1,1,.81-3.163,10.34,10.34,0,0,1,0,20.034A1.636,1.636,0,0,1,16.882,22.516Z" transform="translate(18.986 2.801)" fill="#fff"/><path d="M23.431,22.516a1.633,1.633,0,0,0,.4-3.215,7.075,7.075,0,0,1,0-13.707,1.633,1.633,0,1,0-.81-3.163,10.34,10.34,0,0,0,0,20.034A1.636,1.636,0,0,0,23.431,22.516Z" transform="translate(-19.126 2.801)" fill="#fff"/><path d="M25.413,30.4a1.633,1.633,0,0,1-1.633-1.633V24.414a7.078,7.078,0,0,0-5.306-6.8,1.633,1.633,0,0,1,.816-3.162A10.349,10.349,0,0,1,27.046,24.4v4.363A1.633,1.633,0,0,1,25.413,30.4Z" transform="translate(21.339 16.946)" fill="#fff"/><path d="M18.882,30.4a1.633,1.633,0,0,0,1.633-1.633V24.414a7.078,7.078,0,0,1,5.306-6.8A1.633,1.633,0,1,0,25,14.452,10.349,10.349,0,0,0,17.25,24.4v4.363A1.633,1.633,0,0,0,18.882,30.4Z" transform="translate(-25.463 16.946)" fill="#fff"/></g></g></svg>