<svg xmlns="http://www.w3.org/2000/svg" width="134" height="134" viewBox="0 0 134 134"><g transform="translate(-445 -983)"><circle cx="67" cy="67" r="67" transform="translate(445 983)" fill="#ffd200"/><g transform="translate(482.5 1023.806)"><path d="M0,0H58V58H0Z" fill="none"/><path d="M22.813-.75A23.563,23.563,0,1,1-.75,22.813,23.589,23.589,0,0,1,22.813-.75Zm0,43.5A19.938,19.938,0,1,0,2.875,22.813,19.96,19.96,0,0,0,22.813,42.75Z" transform="translate(6.188 6.188)" fill="#fff"/><path d="M8.313-.75A9.063,9.063,0,1,1-.75,8.313,9.073,9.073,0,0,1,8.313-.75Zm0,14.5A5.438,5.438,0,1,0,2.875,8.313,5.444,5.444,0,0,0,8.313,13.75Z" transform="translate(20.688 15.854)" fill="#fff"/><path d="M35.423,25.775a1.813,1.813,0,0,1-1.736-1.294,7.9,7.9,0,0,0-7.525-5.606h-9.67a7.8,7.8,0,0,0-7.525,5.594,1.813,1.813,0,1,1-3.472-1.043A11.479,11.479,0,0,1,16.489,15.25h9.67a11.479,11.479,0,0,1,11,8.193,1.814,1.814,0,0,1-1.737,2.332Z" transform="translate(7.675 21.604)" fill="#fff"/></g></g></svg>