<svg xmlns="http://www.w3.org/2000/svg" width="134" height="134" viewBox="0 0 134 134"><g transform="translate(-1252 -983)"><circle cx="67" cy="67" r="67" transform="translate(1252 983)" fill="#ffd200"/><g transform="translate(1291.687 1026.687)"><path d="M0,0H48.627V48.627H0Z" fill="none"/><path d="M37.161,17.289H6.77a1.52,1.52,0,0,1,0-3.039H37.161a1.52,1.52,0,0,1,0,3.039Z" transform="translate(5.387 14.622)" fill="#fff"/><path d="M37.161,21.289H6.77a1.52,1.52,0,1,1,0-3.039H37.161a1.52,1.52,0,0,1,0,3.039Z" transform="translate(5.387 18.726)" fill="#fff"/><path d="M27.926,13.289H15.77a1.52,1.52,0,0,1,0-3.039H27.926a1.52,1.52,0,0,1,0,3.039Z" transform="translate(14.622 10.518)" fill="#fff"/><path d="M27.926,9.289H15.77a1.52,1.52,0,0,1,0-3.039H27.926a1.52,1.52,0,0,1,0,3.039Z" transform="translate(14.622 6.413)" fill="#fff"/><path d="M11.8,18.933A3.55,3.55,0,0,1,8.25,15.387V10.322A5.578,5.578,0,0,1,13.822,4.75a1.52,1.52,0,1,1,0,3.039,2.536,2.536,0,0,0-2.533,2.533v1.52H11.8a3.546,3.546,0,0,1,0,7.091Zm-.507-4.052v.507a.507.507,0,1,0,.507-.507Z" transform="translate(8.465 4.874)" fill="#fff"/><path d="M5.8,18.933A3.55,3.55,0,0,1,2.25,15.387V10.322A5.578,5.578,0,0,1,7.822,4.75a1.52,1.52,0,0,1,0,3.039,2.536,2.536,0,0,0-2.533,2.533v1.52H5.8a3.546,3.546,0,1,1,0,7.091Zm-.507-4.052v.507a.507.507,0,1,0,.507-.507Z" transform="translate(2.309 4.874)" fill="#fff"/></g></g></svg>