<svg xmlns="http://www.w3.org/2000/svg" width="236.02" height="62.802" viewBox="0 0 236.02 62.802"><g transform="translate(-351.429 -24.051)"><path d="M869.77,78.715l9.075,5.233,18.143-10.474-9.076-5.233Z" transform="translate(-318.256 -28.491)" fill="#a6a6a6" fill-rule="evenodd"/><path d="M830.355,20.931V0L848.5,10.466l9.067,5.233-27.21,15.7Z" transform="translate(-287.908 24.051)" fill="#ffd200" fill-rule="evenodd"/><path d="M830.355,111.927l36.285-20.94,3.969,2.293a9.437,9.437,0,0,1,0,16.38l-40.254,23.2Z" transform="translate(-287.908 -46.005)" fill="#006fc6" fill-rule="evenodd"/><path d="M0,95.726H7.475L7.018,100.1l.163.033a8.937,8.937,0,0,1,8.421-4.9q8.225,0,8.225,10.38V107.8h-7.05q.13-1.273.131-1.665,0-4.994-3.884-4.994-5.549,0-5.549,7.409V126.93H0Z" transform="translate(351.429 -49.276)" fill="#006fc6"/><path d="M125.684,105.2h-7.638q0-5.614,2.611-7.507T131,95.8q8.421,0,11.392,2.317t2.97,8.846v20.4h-7.475l.359-4.276-.2-.033q-2.154,4.668-9.955,4.668-11.326,0-11.326-9.629,0-9.727,11.587-9.727,7.736,0,9.4,3.558h.13v-5.059q0-3.656-1.273-4.831-1.273-1.208-5.222-1.208Q125.684,100.83,125.684,105.2Zm4.994,8.193q-6.332,0-6.332,4.374,0,3.036,1.306,3.982t5.484.946q6.822,0,6.822-4.6Q137.957,113.4,130.678,113.4Z" transform="translate(261.519 -49.713)" fill="#006fc6"/><path d="M282.336,73.985v5.679H270.324V95.332q0,4.341,3.3,4.341,3.623,0,3.623-5.255v-1.24h6.365v1.567q0,2.154-.131,3.688-.62,7.148-10.641,7.148-9.988,0-9.988-9.172V79.664H258.8V73.985h4.047V67h7.475v6.985Z" transform="translate(152.163 -27.536)" fill="#006fc6"/><path d="M400.8,117.269H408.3v1.207q0,9.139-13.709,9.139-9.3,0-12.175-3.166t-2.873-13.415q0-9.107,3-12.24t11.718-3.133q8.356,0,11.2,3.068,2.84,3.036,2.84,11.979v2.285H387.186q-.065,1.045-.065,1.371,0,4.6,1.4,6.136,1.436,1.534,5.679,1.534,4.113,0,5.353-.881Q400.8,120.239,400.8,117.269Zm.065-8.846-.033-1.24q0-3.721-1.306-4.831-1.273-1.11-5.581-1.11-4.178,0-5.451,1.338-1.24,1.339-1.24,5.843Z" transform="translate(59.194 -49.604)" fill="#006fc6"/><path d="M543.039,97.887v31.084h-4.281v-4.122a9.365,9.365,0,0,1-4.334,3.627,19.566,19.566,0,0,1-6.387.849q-5.52,0-8.138-2.618-2.6-2.618-2.6-8.244V97.887h4.794v20.575a12.434,12.434,0,0,0,.584,4.317,3.649,3.649,0,0,0,2.034,2.105,11.987,11.987,0,0,0,4.334.6,14.519,14.519,0,0,0,5.661-.867,5.068,5.068,0,0,0,2.76-2.866,15.91,15.91,0,0,0,.778-5.608V97.887Z" transform="translate(-46.868 -51.318)" fill="#a6a6a6"/><path d="M667.143,97.887h22.468v4.264l-18.629,22.981h18.629v3.839H665.622v-4.352l18.47-23.1H667.143Z" transform="translate(-161.071 -51.318)" fill="#a6a6a6"/></g></svg>