<svg xmlns="http://www.w3.org/2000/svg" width="134" height="134" viewBox="0 0 134 134"><g transform="translate(-1045 -500)"><circle cx="67" cy="67" r="67" transform="translate(1045 500)" fill="#ffd200"/><g transform="translate(222 1)"><g transform="translate(-17.368 2)"><path d="M23.441,3a5.572,5.572,0,0,0-5.5,4.941H13.559A5.587,5.587,0,0,0,8,13.5V46.851a5.587,5.587,0,0,0,5.559,5.559H41.969a5.587,5.587,0,0,0,5.559-5.559V13.5a5.587,5.587,0,0,0-5.559-5.559H37.583A5.572,5.572,0,0,0,32.087,3Zm0,3.706h8.647a1.853,1.853,0,0,1,0,3.706H23.441a1.853,1.853,0,1,1,0-3.706Zm-9.882,4.941h5.274a5.572,5.572,0,0,0,4.608,2.47h8.647a5.572,5.572,0,0,0,4.608-2.47h5.274A1.825,1.825,0,0,1,43.822,13.5V46.851A1.825,1.825,0,0,1,41.969,48.7H13.559a1.825,1.825,0,0,1-1.853-1.853V13.5A1.825,1.825,0,0,1,13.559,11.647ZM18.5,20.293a1.853,1.853,0,1,0,1.853,1.853A1.853,1.853,0,0,0,18.5,20.293Zm7.411,0a1.853,1.853,0,1,0,0,3.706H37.028a1.853,1.853,0,1,0,0-3.706ZM18.5,28.94a3.088,3.088,0,1,0,3.088,3.088A3.092,3.092,0,0,0,18.5,28.94Zm7.411,1.235a1.853,1.853,0,1,0,0,3.706H37.028a1.853,1.853,0,1,0,0-3.706ZM18.5,40.057a1.853,1.853,0,1,0,1.853,1.853A1.853,1.853,0,0,0,18.5,40.057Zm7.411,0a1.853,1.853,0,1,0,0,3.706H37.028a1.853,1.853,0,1,0,0-3.706Z" transform="translate(865.736 537.795)" fill="#fff"/><text transform="translate(933 565)" fill="#fff" font-size="19" font-family="SegoeUI, Segoe UI"><tspan x="-14.255" y="0">FFT</tspan></text></g></g><g transform="translate(1108.87 554.945)"><path d="M0,0H38.26V38.26H0Z" fill="none"/><path d="M6.5-1.25A7.75,7.75,0,1,1-1.25,6.5,7.759,7.759,0,0,1,6.5-1.25Zm0,13A5.25,5.25,0,1,0,1.25,6.5,5.256,5.256,0,0,0,6.5,11.75Z" transform="translate(16.13 18.13)" fill="#fff"/><path d="M22.485,23.735a1.246,1.246,0,0,1-.884-.366l-3.985-3.985a1.25,1.25,0,0,1,1.768-1.768L23.369,21.6a1.25,1.25,0,0,1-.884,2.134Z" transform="translate(9.992 11.992)" fill="#fff"/></g></g></svg>