<svg xmlns="http://www.w3.org/2000/svg" width="134" height="134" viewBox="0 0 134 134"><g transform="translate(-447 -972)"><circle cx="67" cy="67" r="67" transform="translate(447 972)" fill="#ffd200"/><g transform="translate(484.141 1009.641)"><path d="M0,0H58.717V58.717H0Z" fill="none"/><path d="M17.2,34a10.459,10.459,0,0,1-7.427-3.121A1.835,1.835,0,0,1,12.4,28.315a6.728,6.728,0,0,0,9.611,0l.013-.013,9.786-9.786a6.815,6.815,0,1,0-9.638-9.638L20.945,10.1A1.835,1.835,0,1,1,18.35,7.506l1.223-1.223A10.485,10.485,0,0,1,34.4,21.11l-9.781,9.781A10.459,10.459,0,0,1,17.2,34Z" transform="translate(13.381 4.653)" fill="#fff"/><path d="M13.7,38.992a10.485,10.485,0,0,1-7.414-17.9l9.779-9.779a10.4,10.4,0,0,1,14.848.006,1.835,1.835,0,0,1-2.621,2.568,6.728,6.728,0,0,0-9.611,0l-.013.013L8.877,23.688a6.815,6.815,0,0,0,9.638,9.638L19.739,32.1A1.835,1.835,0,1,1,22.333,34.7L21.11,35.921A10.416,10.416,0,0,1,13.7,38.992Z" transform="translate(4.653 11.861)" fill="#fff"/></g></g></svg>