<svg xmlns="http://www.w3.org/2000/svg" width="134" height="134" viewBox="0 0 134 134"><g transform="translate(-1462 -972)"><circle cx="67" cy="67" r="67" transform="translate(1462 972)" fill="#ffd200"/><g transform="translate(1496.045 1028.715)"><rect width="64.911" height="26.272" rx="2" transform="translate(0 0)" fill="#fff"/><g transform="translate(1.832 2.167)"><path d="M4826.445,1099.085h7.061l4.328,14.666h.066l2.969-14.666h5.333l-4.486,21.149h-7.028l-4.427-14.633h-.059l-2.936,14.633h-5.333Z" transform="translate(-4821.933 -1098.717)" fill="#ffd200"/><path d="M5039.2,1099.085h5.668l-1.668,8.092h6.7l1.668-8.092h5.668l-4.394,21.149h-5.7l1.878-9.057h-6.667l-1.878,9.057h-5.662Z" transform="translate(-5012.85 -1098.717)" fill="#ffd200"/><path d="M5245.47,1100.676a10.625,10.625,0,0,0-4.637-.972c-2.24,0-4.059.335-4.059,2.029,0,3,8.21,1.879,8.21,8.3,0,5.845-5.425,7.363-10.332,7.363a23.64,23.64,0,0,1-6.568-1.09l1.313-4.3a11.012,11.012,0,0,0,5.208,1.215c1.846,0,4.512-.335,4.512-2.516,0-3.4-8.21-2.121-8.21-8.092,0-5.451,4.788-7.093,9.425-7.093a17.145,17.145,0,0,1,6.482.939Z" transform="translate(-5186.181 -1095.52)" fill="#ffd200"/></g></g></g></svg>