<svg xmlns="http://www.w3.org/2000/svg" width="23.353" height="29.191" viewBox="0 0 23.353 29.191">
  <path id="survey" d="M17.122,3a3.292,3.292,0,0,0-3.247,2.919H11.284A3.3,3.3,0,0,0,8,9.2v19.7a3.3,3.3,0,0,0,3.284,3.284H28.069a3.3,3.3,0,0,0,3.284-3.284V9.2a3.3,3.3,0,0,0-3.284-3.284H25.478A3.292,3.292,0,0,0,22.231,3Zm0,2.189h5.108a1.095,1.095,0,1,1,0,2.189H17.122a1.095,1.095,0,1,1,0-2.189ZM11.284,8.108H14.4a3.292,3.292,0,0,0,2.722,1.46h5.108a3.292,3.292,0,0,0,2.722-1.46h3.116A1.078,1.078,0,0,1,29.163,9.2v19.7A1.078,1.078,0,0,1,28.069,30H11.284a1.078,1.078,0,0,1-1.095-1.095V9.2A1.078,1.078,0,0,1,11.284,8.108ZM14.2,13.217A1.095,1.095,0,1,0,15.3,14.312,1.095,1.095,0,0,0,14.2,13.217Zm4.379,0a1.095,1.095,0,1,0,0,2.189H25.15a1.095,1.095,0,1,0,0-2.189ZM14.2,18.325a1.824,1.824,0,1,0,1.824,1.824A1.827,1.827,0,0,0,14.2,18.325Zm4.379.73a1.095,1.095,0,1,0,0,2.189H25.15a1.095,1.095,0,1,0,0-2.189ZM14.2,24.893A1.095,1.095,0,1,0,15.3,25.988,1.095,1.095,0,0,0,14.2,24.893Zm4.379,0a1.095,1.095,0,1,0,0,2.189H25.15a1.095,1.095,0,1,0,0-2.189Z" transform="translate(-8 -3)" fill="#fff"/>
</svg>
