<svg xmlns="http://www.w3.org/2000/svg" width="134" height="134" viewBox="0 0 134 134"><g transform="translate(-1024 -972)"><circle cx="67" cy="67" r="67" transform="translate(1024 972)" fill="#ffd200"/><g transform="translate(1061.641 1009.641)"><path d="M0,0H58.717V58.717H0Z" fill="none"/><path d="M3.531-.75H42.676a4.286,4.286,0,0,1,4.281,4.281V28a4.286,4.286,0,0,1-4.281,4.281H3.531A4.286,4.286,0,0,1-.75,28V3.531A4.286,4.286,0,0,1,3.531-.75ZM42.676,28.609A.612.612,0,0,0,43.288,28V3.531a.612.612,0,0,0-.612-.612H3.531a.612.612,0,0,0-.612.612V28a.612.612,0,0,0,.612.612Z" transform="translate(6.255 8.701)" fill="#fff"/><path d="M32.55,22.92H8.085a1.835,1.835,0,0,1,0-3.67H32.55a1.835,1.835,0,1,1,0,3.67Z" transform="translate(9.041 27.846)" fill="#fff"/><path d="M10.085,28.706A1.835,1.835,0,0,1,8.25,26.871V17.085a1.835,1.835,0,0,1,3.67,0v9.786A1.835,1.835,0,0,1,10.085,28.706Z" transform="translate(11.934 22.06)" fill="#fff"/><path d="M16.085,28.706a1.835,1.835,0,0,1-1.835-1.835V17.085a1.835,1.835,0,0,1,3.67,0v9.786A1.835,1.835,0,0,1,16.085,28.706Z" transform="translate(20.613 22.06)" fill="#fff"/><path d="M10.085,20.706A1.835,1.835,0,0,1,8.25,18.871V9.085a1.835,1.835,0,0,1,3.67,0v9.786A1.835,1.835,0,0,1,10.085,20.706Z" transform="translate(11.934 10.488)" fill="#fff"/><path d="M13.085,16.366a1.835,1.835,0,0,1-1.835-1.835V12.085a1.835,1.835,0,1,1,3.67,0v2.447A1.835,1.835,0,0,1,13.085,16.366Z" transform="translate(16.274 14.827)" fill="#fff"/><path d="M16.085,17.813a1.835,1.835,0,0,1-1.835-1.835V11.085a1.835,1.835,0,0,1,3.67,0v4.893A1.835,1.835,0,0,1,16.085,17.813Z" transform="translate(20.613 13.381)" fill="#fff"/><path d="M13.085,16.366a1.835,1.835,0,0,1-1.835-1.835V12.085a1.835,1.835,0,1,1,3.67,0v2.447A1.835,1.835,0,0,1,13.085,16.366Z" transform="translate(16.274 14.827)" fill="#fff"/></g></g></svg>