<svg xmlns="http://www.w3.org/2000/svg" width="134" height="134" viewBox="0 0 134 134"><g transform="translate(-665 -972)"><circle cx="67" cy="67" r="67" transform="translate(665 972)" fill="#ffd200"/><g transform="translate(-3.329 7.185)"><g transform="translate(709.141 1018.971)"><path d="M0,0H51.376V51.376H0Z" fill="none"/><path d="M16.207,30.155a9.151,9.151,0,0,1-6.5-2.731A1.606,1.606,0,0,1,12,25.177a5.887,5.887,0,0,0,8.41,0l.012-.012L28.986,16.6A5.963,5.963,0,0,0,20.553,8.17l-1.07,1.07a1.606,1.606,0,0,1-2.271-2.271l1.07-1.07A9.174,9.174,0,0,1,31.257,18.873L22.7,27.431A9.151,9.151,0,0,1,16.207,30.155Z" transform="translate(10.551 3.669)" fill="#fff"/><path d="M12.386,35.142A9.174,9.174,0,0,1,5.9,19.481l8.557-8.557a9.1,9.1,0,0,1,12.991.006,1.606,1.606,0,1,1-2.294,2.247,5.887,5.887,0,0,0-8.41,0l-.012.012L8.17,21.752A5.963,5.963,0,0,0,16.6,30.185l1.07-1.07a1.606,1.606,0,0,1,2.271,2.271l-1.07,1.07A9.114,9.114,0,0,1,12.386,35.142Z" transform="translate(3.669 9.353)" fill="#fff"/></g><g transform="translate(709.141 993.283)"><path d="M0,0H51.376V51.376H0Z" fill="none"/><path d="M16.207,30.155a9.151,9.151,0,0,1-6.5-2.731A1.606,1.606,0,0,1,12,25.177a5.887,5.887,0,0,0,8.41,0l.012-.012L28.986,16.6A5.963,5.963,0,0,0,20.553,8.17l-1.07,1.07a1.606,1.606,0,0,1-2.271-2.271l1.07-1.07A9.174,9.174,0,0,1,31.257,18.873L22.7,27.431A9.151,9.151,0,0,1,16.207,30.155Z" transform="translate(10.551 3.669)" fill="#fff"/><path d="M12.386,35.142A9.174,9.174,0,0,1,5.9,19.481l8.557-8.557a9.1,9.1,0,0,1,12.991.006,1.606,1.606,0,1,1-2.294,2.247,5.887,5.887,0,0,0-8.41,0l-.012.012L8.17,21.752A5.963,5.963,0,0,0,16.6,30.185l1.07-1.07a1.606,1.606,0,0,1,2.271,2.271l-1.07,1.07A9.114,9.114,0,0,1,12.386,35.142Z" transform="translate(3.669 9.353)" fill="#fff"/></g></g></g></svg>