<svg xmlns="http://www.w3.org/2000/svg" width="134" height="134" viewBox="0 0 134 134"><g transform="translate(-1242 -972)"><circle cx="67" cy="67" r="67" transform="translate(1242 972)" fill="#ffd200"/><g transform="translate(1278.827 1009.641)"><path d="M0,0H59.345V59.345H0Z" fill="none"/><path d="M24.137,47.523H10.05a6.808,6.808,0,0,1-6.8-6.8V11.05a6.8,6.8,0,0,1,6.8-6.8H15a1.855,1.855,0,1,1,0,3.709H10.05A3.091,3.091,0,0,0,6.959,11.05V40.723a3.094,3.094,0,0,0,3.091,3.091H24.137a1.855,1.855,0,0,1,0,3.709Z" transform="translate(4.786 6.259)" fill="#fff"/><path d="M29,26.85H19.1A1.855,1.855,0,0,1,17.25,25V15.1a1.855,1.855,0,1,1,3.709,0v8.036H29a1.855,1.855,0,0,1,0,3.709Z" transform="translate(25.404 19.514)" fill="#fff"/><path d="M25,22.8a1.855,1.855,0,0,1-1.855-1.855V11.05A3.094,3.094,0,0,0,20.05,7.959H15.1a1.855,1.855,0,0,1,0-3.709H20.05a6.808,6.808,0,0,1,6.8,6.8v9.891A1.855,1.855,0,0,1,25,22.8Z" transform="translate(19.514 6.259)" fill="#fff"/><path d="M6.05-.75H11a6.8,6.8,0,0,1,0,13.6H6.05a6.8,6.8,0,0,1,0-13.6ZM11,9.141a3.091,3.091,0,0,0,0-6.182H6.05a3.091,3.091,0,0,0,0,6.182Z" transform="translate(18.677 6.314)" fill="#fff"/><path d="M11-.75A11.745,11.745,0,1,1-.75,11,11.759,11.759,0,0,1,11-.75Zm0,19.782A8.036,8.036,0,1,0,2.959,11,8.045,8.045,0,0,0,11,19.032Z" transform="translate(33.514 33.514)" fill="#fff"/><path d="M19,13.959H9.1a1.855,1.855,0,0,1,0-3.709H19a1.855,1.855,0,0,1,0,3.709Z" transform="translate(10.677 15.095)" fill="#fff"/><path d="M16.523,17.959H9.1a1.855,1.855,0,0,1,0-3.709h7.418a1.855,1.855,0,1,1,0,3.709Z" transform="translate(10.677 20.986)" fill="#fff"/></g></g></svg>